<svg width="232" height="32" viewBox="0 0 232 32" fill="none" xmlns="http://www.w3.org/2000/svg">
<path d="M-2.77907e-06 25.4586V0.564454H18.4287V4.98219H5.38512V10.5608H17.7032V14.9946H5.38512V21.0408H18.993V25.4586H-2.77907e-06ZM22.2499 25.4586V8.02946H27.0062L27.2642 11.0929C27.5974 10.2974 27.9575 9.66864 28.3444 9.20645C29.1184 8.28206 30.1986 7.81986 31.5852 7.81986C32.1119 7.81986 32.7299 7.88973 33.4394 8.02946L33.0202 12.2215C32.2032 12.114 31.5798 12.0602 31.1499 12.0602C29.9353 12.0602 28.9786 12.5009 28.28 13.3823C27.6028 14.2315 27.2642 15.3977 27.2642 16.8811V25.4586H22.2499ZM35.5031 25.4586V8.02946H40.2594L40.5174 11.0929C40.8506 10.2974 41.2107 9.66864 41.5977 9.20645C42.3716 8.28206 43.4518 7.81986 44.8384 7.81986C45.3651 7.81986 45.9831 7.88973 46.6926 8.02946L46.2734 12.2215C45.4565 12.114 44.833 12.0602 44.4031 12.0602C43.1885 12.0602 42.2318 12.5009 41.5332 13.3823C40.856 14.2315 40.5174 15.3977 40.5174 16.8811V25.4586H35.5031ZM64.7827 17.9613H52.4324C52.5721 20.842 53.905 22.2823 56.4309 22.2823C58.1937 22.2823 59.4245 21.4923 60.1231 19.9122L64.3796 21.8631C62.993 24.6578 60.2897 26.0551 56.2697 26.0551C53.6255 26.0551 51.5295 25.3296 49.9817 23.8785C48.2726 22.2662 47.4181 19.9015 47.4181 16.7843C47.4181 14.0326 48.1221 11.8291 49.5302 10.1738C51.0781 8.34655 53.2923 7.43291 56.173 7.43291C58.2475 7.43291 59.9565 7.85211 61.3001 8.69051C63.6218 10.1523 64.7827 12.7912 64.7827 16.607V17.9613ZM52.4324 14.9946H59.8007C59.6824 12.3505 58.4624 11.0284 56.1407 11.0284C54.0447 11.0284 52.8086 12.3505 52.4324 14.9946ZM68.2653 25.4586V0.564454H86.694V4.98219H73.6504V10.5608H85.9685V14.9946H73.6504V21.0408H87.2583V25.4586H68.2653ZM91.2408 25.4586V11.6572H88.9351V8.02946H91.2408V5.91733C91.2408 4.0578 91.7137 2.65509 92.6596 1.7092C93.6485 0.720311 95.0727 0.225869 96.9322 0.225869C97.7384 0.225869 98.9584 0.34948 100.592 0.596701L100.254 4.15991C99.5872 4.09542 99.0873 4.06317 98.7541 4.06317C97.9265 4.06317 97.303 4.25665 96.8838 4.6436C96.4646 5.04131 96.255 5.70773 96.255 6.64287V8.02946H100.028V11.6572H96.255V25.4586H91.2408ZM103.301 25.4586V11.6572H100.995V8.02946H103.301V5.91733C103.301 4.0578 103.774 2.65509 104.72 1.7092C105.709 0.720311 107.133 0.225869 108.992 0.225869C109.798 0.225869 111.018 0.34948 112.652 0.596701L112.314 4.15991C111.647 4.09542 111.147 4.06317 110.814 4.06317C109.987 4.06317 109.363 4.25665 108.944 4.6436C108.525 5.04131 108.315 5.70773 108.315 6.64287V8.02946H112.088V11.6572H108.315V25.4586H103.301ZM130.404 17.9613H118.054C118.193 20.842 119.526 22.2823 122.052 22.2823C123.815 22.2823 125.046 21.4923 125.744 19.9122L130.001 21.8631C128.614 24.6578 125.911 26.0551 121.891 26.0551C119.247 26.0551 117.151 25.3296 115.603 23.8785C113.894 22.2662 113.039 19.9015 113.039 16.7843C113.039 14.0326 113.743 11.8291 115.151 10.1738C116.699 8.34655 118.913 7.43291 121.794 7.43291C123.869 7.43291 125.578 7.85211 126.921 8.69051C129.243 10.1523 130.404 12.7912 130.404 16.607V17.9613ZM118.054 14.9946H125.422C125.304 12.3505 124.084 11.0284 121.762 11.0284C119.666 11.0284 118.43 12.3505 118.054 14.9946ZM160.641 25.1944C158.098 25.5906 154.73 26.0199 151.692 26.0199C146.772 26.0199 144.758 24.2698 143.404 21.7603C142.348 19.8782 141.885 16.9394 141.885 13.2411C141.885 9.37774 142.348 6.14176 143.669 3.92941C145.121 1.51894 147.268 1.52764e-05 151.824 1.52764e-05C153.244 1.52764e-05 154.631 0.231155 155.853 0.462297C157.339 0.726459 158.759 1.05666 159.782 1.32082V4.49076C158.462 4.16055 156.844 3.76431 155.292 3.46713C154.202 3.26901 153.112 3.07089 152.056 3.07089C148.952 3.07089 147.301 3.86337 146.244 6.00968C145.452 7.59465 145.121 10.2363 145.121 13.2081C145.121 16.2129 145.419 18.4913 146.145 20.0102C147.103 22.0245 148.886 22.949 152.023 22.949C153.905 22.949 156.183 22.6849 157.471 22.5198V12.1514H160.641V25.1944ZM169.15 25.4586H166.046V8.02391H169.15V10.1372C169.91 9.57586 170.57 9.1466 171.429 8.71734C172.419 8.25505 173.806 7.85881 175.325 7.62767V10.7646C174.037 10.9957 172.981 11.3259 171.891 11.7882C170.834 12.2175 169.91 12.7788 169.15 13.3071V25.4586ZM184.499 7.46257C187.537 7.46257 189.486 8.32109 190.806 10.1372C192.061 11.8543 192.391 14.3308 192.391 16.7412C192.391 19.2177 191.929 21.4961 191.104 22.85C189.915 24.7982 187.967 26.0199 184.499 26.0199C181.098 26.0199 179.348 25.0623 178.061 23.2132C177.136 21.8594 176.608 19.3828 176.608 16.8403C176.608 14.661 176.938 12.4156 177.697 10.9957C178.853 8.8164 180.735 7.46257 184.499 7.46257ZM184.499 10.4014C182.518 10.4014 181.264 10.9627 180.504 12.4486C179.943 13.5713 179.745 15.0902 179.745 16.8073C179.745 18.5904 180.009 20.2084 180.603 21.265C181.396 22.6849 182.683 23.0811 184.499 23.0811C186.25 23.0811 187.537 22.5528 188.297 21.3641C188.957 20.2744 189.254 18.6234 189.254 16.6422C189.254 14.8591 189.089 13.4062 188.363 12.2175C187.57 10.8636 186.349 10.4014 184.499 10.4014ZM210.976 24.6331C208.599 25.2935 205.957 26.0199 202.854 26.0199C200.509 26.0199 198.99 25.4255 198.033 24.2698C197.042 23.1141 196.712 21.298 196.712 18.6234V8.02391H199.816V18.5573C199.816 20.0102 199.849 21.3971 200.443 22.1565C200.971 22.85 201.764 23.0811 203.118 23.0811C205.066 23.0811 206.684 22.6849 207.873 22.3547V8.02391H210.976V24.6331ZM219.1 31.7984H215.996V8.02391H219.1V9.807C219.694 9.37774 220.487 8.84942 221.312 8.42016C222.336 7.89183 223.491 7.46257 224.812 7.46257C227.223 7.46257 228.709 8.35412 229.831 10.1702C230.723 11.6231 231.251 13.9675 231.251 16.7082C231.251 19.4159 230.789 21.6943 229.798 23.2792C228.709 24.9633 227.124 26.0199 224.383 26.0199C222.534 26.0199 220.52 25.2604 219.1 24.6V31.7984ZM219.1 21.5292C220.454 22.1896 222.27 23.0481 223.921 23.0481C225.44 23.0481 226.463 22.5858 227.19 21.3641C227.817 20.2744 228.114 18.7555 228.114 16.7412C228.114 14.8261 227.883 13.2081 227.289 12.0854C226.628 10.8306 225.671 10.4014 224.317 10.4014C223.425 10.4014 222.534 10.7316 221.675 11.2599C220.817 11.7552 219.859 12.3826 219.1 12.9109V21.5292Z" fill="#0B0B0B"/>
</svg>
