<svg width="232" height="32" viewBox="0 0 232 32" fill="none" xmlns="http://www.w3.org/2000/svg">
<path d="M1.03563e-06 25.4585V0.564439H18.4287V4.98218H5.38512V10.5608H17.7032V14.9946H5.38512V21.0408H18.993V25.4585H1.03563e-06ZM22.2499 25.4585V8.02945H27.0062L27.2642 11.0928C27.5974 10.2974 27.9575 9.66863 28.3445 9.20643C29.1184 8.28204 30.1986 7.81984 31.5852 7.81984C32.1119 7.81984 32.7299 7.88971 33.4394 8.02945L33.0202 12.2215C32.2033 12.114 31.5798 12.0602 31.1499 12.0602C29.9353 12.0602 28.9786 12.5009 28.28 13.3823C27.6028 14.2315 27.2642 15.3977 27.2642 16.881V25.4585H22.2499ZM35.5031 25.4585V8.02945H40.2594L40.5174 11.0928C40.8506 10.2974 41.2107 9.66863 41.5977 9.20643C42.3716 8.28204 43.4518 7.81984 44.8384 7.81984C45.3651 7.81984 45.9831 7.88971 46.6926 8.02945L46.2734 12.2215C45.4565 12.114 44.833 12.0602 44.4031 12.0602C43.1885 12.0602 42.2318 12.5009 41.5332 13.3823C40.856 14.2315 40.5174 15.3977 40.5174 16.881V25.4585H35.5031ZM64.7827 17.9613H52.4324C52.5721 20.842 53.905 22.2823 56.4309 22.2823C58.1937 22.2823 59.4245 21.4923 60.1231 19.9122L64.3796 21.8631C62.993 24.6578 60.2897 26.0551 56.2697 26.0551C53.6255 26.0551 51.5295 25.3296 49.9817 23.8785C48.2726 22.2662 47.4181 19.9014 47.4181 16.7843C47.4181 14.0326 48.1221 11.8291 49.5302 10.1738C51.0781 8.34653 53.2923 7.43289 56.173 7.43289C58.2475 7.43289 59.9565 7.85209 61.3001 8.69049C63.6218 10.1523 64.7827 12.7911 64.7827 16.6069V17.9613ZM52.4324 14.9946H59.8007C59.6824 12.3504 58.4624 11.0283 56.1407 11.0283C54.0447 11.0283 52.8086 12.3504 52.4324 14.9946ZM68.2653 25.4585V0.564439H86.694V4.98218H73.6504V10.5608H85.9685V14.9946H73.6504V21.0408H87.2583V25.4585H68.2653ZM91.2408 25.4585V11.6571H88.9351V8.02945H91.2408V5.91732C91.2408 4.05778 91.7137 2.65507 92.6596 1.70918C93.6485 0.720296 95.0727 0.225854 96.9322 0.225854C97.7384 0.225854 98.9584 0.349464 100.592 0.596685L100.254 4.1599C99.5872 4.0954 99.0873 4.06316 98.7541 4.06316C97.9265 4.06316 97.3031 4.25663 96.8838 4.64359C96.4646 5.04129 96.255 5.70772 96.255 6.64286V8.02945H100.028V11.6571H96.255V25.4585H91.2408ZM103.301 25.4585V11.6571H100.995V8.02945H103.301V5.91732C103.301 4.05778 103.774 2.65507 104.72 1.70918C105.709 0.720296 107.133 0.225854 108.992 0.225854C109.798 0.225854 111.018 0.349464 112.652 0.596685L112.314 4.1599C111.647 4.0954 111.147 4.06316 110.814 4.06316C109.987 4.06316 109.363 4.25663 108.944 4.64359C108.525 5.04129 108.315 5.70772 108.315 6.64286V8.02945H112.088V11.6571H108.315V25.4585H103.301ZM130.404 17.9613H118.054C118.193 20.842 119.526 22.2823 122.052 22.2823C123.815 22.2823 125.046 21.4923 125.744 19.9122L130.001 21.8631C128.614 24.6578 125.911 26.0551 121.891 26.0551C119.247 26.0551 117.151 25.3296 115.603 23.8785C113.894 22.2662 113.039 19.9014 113.039 16.7843C113.039 14.0326 113.743 11.8291 115.151 10.1738C116.699 8.34653 118.913 7.43289 121.794 7.43289C123.869 7.43289 125.578 7.85209 126.921 8.69049C129.243 10.1523 130.404 12.7911 130.404 16.6069V17.9613ZM118.054 14.9946H125.422C125.304 12.3504 124.084 11.0283 121.762 11.0283C119.666 11.0283 118.43 12.3504 118.054 14.9946ZM160.641 25.1944C158.098 25.5906 154.73 26.0199 151.692 26.0199C146.772 26.0199 144.758 24.2698 143.404 21.7603C142.348 19.8781 141.885 16.9393 141.885 13.2411C141.885 9.37772 142.348 6.14175 143.669 3.9294C145.121 1.51893 147.268 1.75623e-08 151.824 1.75623e-08C153.244 1.75623e-08 154.631 0.23114 155.853 0.462282C157.339 0.726444 158.759 1.05665 159.782 1.32081V4.49074C158.462 4.16054 156.844 3.7643 155.292 3.46712C154.202 3.26899 153.112 3.07087 152.056 3.07087C148.952 3.07087 147.301 3.86336 146.244 6.00967C145.452 7.59464 145.121 10.2362 145.121 13.2081C145.121 16.2129 145.419 18.4913 146.145 20.0102C147.103 22.0244 148.886 22.949 152.023 22.949C153.905 22.949 156.183 22.6848 157.471 22.5197V12.1514H160.641V25.1944ZM169.15 25.4585H166.046V8.0239H169.15V10.1372C169.91 9.57585 170.57 9.14658 171.429 8.71732C172.419 8.25504 173.806 7.8588 175.325 7.62766V10.7646C174.037 10.9957 172.981 11.3259 171.891 11.7882C170.834 12.2175 169.91 12.7788 169.15 13.3071V25.4585ZM184.499 7.46256C187.537 7.46256 189.486 8.32108 190.806 10.1372C192.061 11.8542 192.391 14.3307 192.391 16.7412C192.391 19.2177 191.929 21.4961 191.104 22.8499C189.915 24.7981 187.967 26.0199 184.499 26.0199C181.098 26.0199 179.348 25.0623 178.061 23.2132C177.136 21.8593 176.608 19.3828 176.608 16.8403C176.608 14.6609 176.938 12.4156 177.697 10.9957C178.853 8.81638 180.735 7.46256 184.499 7.46256ZM184.499 10.4013C182.518 10.4013 181.264 10.9627 180.504 12.4486C179.943 13.5713 179.745 15.0902 179.745 16.8073C179.745 18.5903 180.009 20.2083 180.603 21.265C181.396 22.6848 182.683 23.0811 184.499 23.0811C186.25 23.0811 187.537 22.5528 188.297 21.364C188.957 20.2744 189.254 18.6234 189.254 16.6422C189.254 14.8591 189.089 13.4062 188.363 12.2175C187.57 10.8636 186.349 10.4013 184.499 10.4013ZM210.976 24.633C208.599 25.2934 205.957 26.0199 202.854 26.0199C200.509 26.0199 198.99 25.4255 198.033 24.2698C197.042 23.1141 196.712 21.298 196.712 18.6234V8.0239H199.816V18.5573C199.816 20.0102 199.849 21.3971 200.443 22.1565C200.971 22.8499 201.764 23.0811 203.118 23.0811C205.066 23.0811 206.684 22.6848 207.873 22.3546V8.0239H210.976V24.633ZM219.1 31.7984H215.996V8.0239H219.1V9.80699C219.694 9.37772 220.487 8.8494 221.312 8.42014C222.336 7.89182 223.491 7.46256 224.812 7.46256C227.223 7.46256 228.709 8.3541 229.831 10.1702C230.723 11.6231 231.251 13.9675 231.251 16.7082C231.251 19.4159 230.789 21.6942 229.798 23.2792C228.709 24.9632 227.124 26.0199 224.383 26.0199C222.534 26.0199 220.52 25.2604 219.1 24.6V31.7984ZM219.1 21.5291C220.454 22.1895 222.27 23.0481 223.921 23.0481C225.44 23.0481 226.463 22.5858 227.19 21.364C227.817 20.2744 228.114 18.7554 228.114 16.7412C228.114 14.8261 227.883 13.2081 227.289 12.0854C226.628 10.8306 225.671 10.4013 224.317 10.4013C223.425 10.4013 222.534 10.7316 221.675 11.2599C220.817 11.7552 219.859 12.3826 219.1 12.9109V21.5291Z" fill="white"/>
</svg>
